{
    "asset" : {
        "generator" : "Khronos glTF Blender I/O v3.2.40",
        "version" : "2.0"
    },
    "scene" : 0,
    "scenes" : [
        {
            "name" : "Scene",
            "nodes" : [
                0,
                1,
                2
            ]
        }
    ],
    "nodes" : [
        {
            "mesh" : 0,
            "name" : "\ud3c9\uba74",
            "rotation" : [
                -0.10009024292230606,
                -0.07768125832080841,
                -0.7030163407325745,
                0.6997968554496765
            ],
            "scale" : [
                1.505059003829956,
                1.6546534299850464,
                2.153301239013672
            ],
            "translation" : [
                -0.28401732444763184,
                0.08932872116565704,
                -0.13112032413482666
            ]
        },
        {
            "mesh" : 1,
            "name" : "\ud050\ube0c",
            "rotation" : [
                -0.1256786733865738,
                0.01604139246046543,
                -0.0007305768667720258,
                0.9919410347938538
            ],
            "scale" : [
                0.2390623241662979,
                1.2363580465316772,
                0.2889270484447479
            ],
            "translation" : [
                0.4147796630859375,
                -1.3052343130111694,
                0.2027333676815033
            ]
        },
        {
            "mesh" : 2,
            "name" : "\ud3c9\uba74.001",
            "rotation" : [
                -0.1256786584854126,
                0.01604139246046543,
                -0.0007305769249796867,
                0.9919410347938538
            ],
            "scale" : [
                0.9965992569923401,
                0.9965992569923401,
                0.9965992569923401
            ],
            "translation" : [
                0.5269902348518372,
                -2.5154547691345215,
                0.5159389972686768
            ]
        }
    ],
    "materials" : [
        {
            "doubleSided" : true,
            "name" : "\ub9e4\ud14c\ub9ac\uc5bc",
            "pbrMetallicRoughness" : {
                "baseColorTexture" : {
                    "index" : 0
                },
                "metallicFactor" : 0,
                "roughnessFactor" : 0.5
            }
        },
        {
            "doubleSided" : true,
            "emissiveFactor" : [
                0.015992948785424232,
                0.015992948785424232,
                0.015992948785424232
            ],
            "name" : "\ub9e4\ud14c\ub9ac\uc5bc.003",
            "pbrMetallicRoughness" : {
                "baseColorTexture" : {
                    "index" : 1
                },
                "metallicFactor" : 0,
                "roughnessFactor" : 0
            }
        },
        {
            "doubleSided" : true,
            "name" : "\ub9e4\ud14c\ub9ac\uc5bc.001",
            "pbrMetallicRoughness" : {
                "metallicFactor" : 0,
                "roughnessFactor" : 0.5
            }
        }
    ],
    "meshes" : [
        {
            "name" : "\ud3c9\uba74",
            "primitives" : [
                {
                    "attributes" : {
                        "POSITION" : 0,
                        "NORMAL" : 1,
                        "TEXCOORD_0" : 2
                    },
                    "indices" : 3,
                    "material" : 0
                },
                {
                    "attributes" : {
                        "POSITION" : 4,
                        "NORMAL" : 5,
                        "TEXCOORD_0" : 6
                    },
                    "indices" : 7,
                    "material" : 1
                }
            ]
        },
        {
            "name" : "\ud050\ube0c",
            "primitives" : [
                {
                    "attributes" : {
                        "POSITION" : 8,
                        "NORMAL" : 9,
                        "TEXCOORD_0" : 10
                    },
                    "indices" : 11,
                    "material" : 2
                }
            ]
        },
        {
            "name" : "\ud3c9\uba74.001",
            "primitives" : [
                {
                    "attributes" : {
                        "POSITION" : 12,
                        "NORMAL" : 13,
                        "TEXCOORD_0" : 14
                    },
                    "indices" : 15,
                    "material" : 2
                }
            ]
        }
    ],
    "textures" : [
        {
            "sampler" : 0,
            "source" : 0
        },
        {
            "sampler" : 0,
            "source" : 1
        }
    ],
    "images" : [
        {
            "bufferView" : 4,
            "mimeType" : "image/png",
            "name" : "Untitled"
        },
        {
            "bufferView" : 9,
            "mimeType" : "image/png",
            "name" : "fonyo"
        }
    ],
    "accessors" : [
        {
            "bufferView" : 0,
            "componentType" : 5126,
            "count" : 825,
            "max" : [
                1,
                0.1616038829088211,
                1
            ],
            "min" : [
                -1,
                -7.450580596923828e-09,
                -1
            ],
            "type" : "VEC3"
        },
        {
            "bufferView" : 1,
            "componentType" : 5126,
            "count" : 825,
            "type" : "VEC3"
        },
        {
            "bufferView" : 2,
            "componentType" : 5126,
            "count" : 825,
            "type" : "VEC2"
        },
        {
            "bufferView" : 3,
            "componentType" : 5123,
            "count" : 2736,
            "type" : "SCALAR"
        },
        {
            "bufferView" : 5,
            "componentType" : 5126,
            "count" : 225,
            "max" : [
                0.875,
                0.03801414370536804,
                0.875
            ],
            "min" : [
                -0.875,
                0.03801414370536804,
                -0.875
            ],
            "type" : "VEC3"
        },
        {
            "bufferView" : 6,
            "componentType" : 5126,
            "count" : 225,
            "type" : "VEC3"
        },
        {
            "bufferView" : 7,
            "componentType" : 5126,
            "count" : 225,
            "type" : "VEC2"
        },
        {
            "bufferView" : 8,
            "componentType" : 5123,
            "count" : 1176,
            "type" : "SCALAR"
        },
        {
            "bufferView" : 10,
            "componentType" : 5126,
            "count" : 86,
            "max" : [
                1,
                1,
                1
            ],
            "min" : [
                -1.9344624280929565,
                -1,
                -1
            ],
            "type" : "VEC3"
        },
        {
            "bufferView" : 11,
            "componentType" : 5126,
            "count" : 86,
            "type" : "VEC3"
        },
        {
            "bufferView" : 12,
            "componentType" : 5126,
            "count" : 86,
            "type" : "VEC2"
        },
        {
            "bufferView" : 13,
            "componentType" : 5123,
            "count" : 156,
            "type" : "SCALAR"
        },
        {
            "bufferView" : 14,
            "componentType" : 5126,
            "count" : 24,
            "max" : [
                1,
                0.11146562546491623,
                1
            ],
            "min" : [
                -1,
                0,
                -1
            ],
            "type" : "VEC3"
        },
        {
            "bufferView" : 15,
            "componentType" : 5126,
            "count" : 24,
            "type" : "VEC3"
        },
        {
            "bufferView" : 16,
            "componentType" : 5126,
            "count" : 24,
            "type" : "VEC2"
        },
        {
            "bufferView" : 17,
            "componentType" : 5123,
            "count" : 36,
            "type" : "SCALAR"
        }
    ],
    "bufferViews" : [
        {
            "buffer" : 0,
            "byteLength" : 9900,
            "byteOffset" : 0
        },
        {
            "buffer" : 0,
            "byteLength" : 9900,
            "byteOffset" : 9900
        },
        {
            "buffer" : 0,
            "byteLength" : 6600,
            "byteOffset" : 19800
        },
        {
            "buffer" : 0,
            "byteLength" : 5472,
            "byteOffset" : 26400
        },
        {
            "buffer" : 0,
            "byteLength" : 20566,
            "byteOffset" : 31872
        },
        {
            "buffer" : 0,
            "byteLength" : 2700,
            "byteOffset" : 52440
        },
        {
            "buffer" : 0,
            "byteLength" : 2700,
            "byteOffset" : 55140
        },
        {
            "buffer" : 0,
            "byteLength" : 1800,
            "byteOffset" : 57840
        },
        {
            "buffer" : 0,
            "byteLength" : 2352,
            "byteOffset" : 59640
        },
        {
            "buffer" : 0,
            "byteLength" : 344019,
            "byteOffset" : 61992
        },
        {
            "buffer" : 0,
            "byteLength" : 1032,
            "byteOffset" : 406012
        },
        {
            "buffer" : 0,
            "byteLength" : 1032,
            "byteOffset" : 407044
        },
        {
            "buffer" : 0,
            "byteLength" : 688,
            "byteOffset" : 408076
        },
        {
            "buffer" : 0,
            "byteLength" : 312,
            "byteOffset" : 408764
        },
        {
            "buffer" : 0,
            "byteLength" : 288,
            "byteOffset" : 409076
        },
        {
            "buffer" : 0,
            "byteLength" : 288,
            "byteOffset" : 409364
        },
        {
            "buffer" : 0,
            "byteLength" : 192,
            "byteOffset" : 409652
        },
        {
            "buffer" : 0,
            "byteLength" : 72,
            "byteOffset" : 409844
        }
    ],
    "samplers" : [
        {
            "magFilter" : 9729,
            "minFilter" : 9987
        }
    ],
    "buffers" : [
        {
            "byteLength" : 409916,
            "uri" : "data:application/octet-stream;base64,"
        }
    ]
}
