{
    "asset" : {
        "generator" : "Khronos glTF Blender I/O v3.2.40",
        "version" : "2.0"
    },
    "scene" : 0,
    "scenes" : [
        {
            "name" : "Scene",
            "nodes" : [
                0
            ]
        }
    ],
    "nodes" : [
        {
            "mesh" : 0,
            "name" : "monitor",
            "rotation" : [
                -0.6037476658821106,
                0.3412773609161377,
                -0.44964316487312317,
                0.562885046005249
            ],
            "scale" : [
                1.505059003829956,
                1.6546534299850464,
                2.153301239013672
            ],
            "translation" : [
                -0.5043112635612488,
                0.20865458250045776,
                -0.13112030923366547
            ]
        }
    ],
    "materials" : [
        {
            "doubleSided" : true,
            "name" : "\ub9e4\ud14c\ub9ac\uc5bc",
            "pbrMetallicRoughness" : {
                "baseColorTexture" : {
                    "index" : 0
                },
                "metallicFactor" : 0,
                "roughnessFactor" : 0.5
            }
        },
        {
            "doubleSided" : true,
            "emissiveFactor" : [
                0.015992948785424232,
                0.015992948785424232,
                0.015992948785424232
            ],
            "name" : "screen",
            "pbrMetallicRoughness" : {
                "baseColorTexture" : {
                    "index" : 1
                },
                "metallicFactor" : 0,
                "roughnessFactor" : 0
            }
        },
        {
            "doubleSided" : true,
            "name" : "\uba54\ud14c\ub9ac\uc5bc.001",
            "pbrMetallicRoughness" : {
                "metallicFactor" : 0,
                "roughnessFactor" : 0.5
            }
        }
    ],
    "meshes" : [
        {
            "name" : "\ud3c9\uba74",
            "primitives" : [
                {
                    "attributes" : {
                        "POSITION" : 0,
                        "NORMAL" : 1,
                        "TEXCOORD_0" : 2
                    },
                    "indices" : 3,
                    "material" : 0
                },
                {
                    "attributes" : {
                        "POSITION" : 4,
                        "NORMAL" : 5,
                        "TEXCOORD_0" : 6
                    },
                    "indices" : 7,
                    "material" : 1
                },
                {
                    "attributes" : {
                        "POSITION" : 8,
                        "NORMAL" : 9,
                        "TEXCOORD_0" : 10
                    },
                    "indices" : 11,
                    "material" : 2
                }
            ]
        }
    ],
    "textures" : [
        {
            "sampler" : 0,
            "source" : 0
        },
        {
            "sampler" : 0,
            "source" : 1
        }
    ],
    "images" : [
        {
            "bufferView" : 4,
            "mimeType" : "image/png",
            "name" : "Untitled"
        },
        {
            "bufferView" : 9,
            "mimeType" : "image/png",
            "name" : "fonyo.mp4"
        }
    ],
    "accessors" : [
        {
            "bufferView" : 0,
            "componentType" : 5126,
            "count" : 825,
            "max" : [
                1,
                0.1616038829088211,
                1
            ],
            "min" : [
                -1,
                -7.450580596923828e-09,
                -1
            ],
            "type" : "VEC3"
        },
        {
            "bufferView" : 1,
            "componentType" : 5126,
            "count" : 825,
            "type" : "VEC3"
        },
        {
            "bufferView" : 2,
            "componentType" : 5126,
            "count" : 825,
            "type" : "VEC2"
        },
        {
            "bufferView" : 3,
            "componentType" : 5123,
            "count" : 2736,
            "type" : "SCALAR"
        },
        {
            "bufferView" : 5,
            "componentType" : 5126,
            "count" : 225,
            "max" : [
                0.875,
                0.03801414370536804,
                0.875
            ],
            "min" : [
                -0.875,
                0.03801414370536804,
                -0.875
            ],
            "type" : "VEC3"
        },
        {
            "bufferView" : 6,
            "componentType" : 5126,
            "count" : 225,
            "type" : "VEC3"
        },
        {
            "bufferView" : 7,
            "componentType" : 5126,
            "count" : 225,
            "type" : "VEC2"
        },
        {
            "bufferView" : 8,
            "componentType" : 5123,
            "count" : 1176,
            "type" : "SCALAR"
        },
        {
            "bufferView" : 10,
            "componentType" : 5126,
            "count" : 128,
            "max" : [
                1.784995436668396,
                1.0934958457946777,
                0.46414774656295776
            ],
            "min" : [
                0.13091379404067993,
                -0.11110013723373413,
                -0.46150004863739014
            ],
            "type" : "VEC3"
        },
        {
            "bufferView" : 11,
            "componentType" : 5126,
            "count" : 128,
            "type" : "VEC3"
        },
        {
            "bufferView" : 12,
            "componentType" : 5126,
            "count" : 128,
            "type" : "VEC2"
        },
        {
            "bufferView" : 13,
            "componentType" : 5123,
            "count" : 192,
            "type" : "SCALAR"
        }
    ],
    "bufferViews" : [
        {
            "buffer" : 0,
            "byteLength" : 9900,
            "byteOffset" : 0
        },
        {
            "buffer" : 0,
            "byteLength" : 9900,
            "byteOffset" : 9900
        },
        {
            "buffer" : 0,
            "byteLength" : 6600,
            "byteOffset" : 19800
        },
        {
            "buffer" : 0,
            "byteLength" : 5472,
            "byteOffset" : 26400
        },
        {
            "buffer" : 0,
            "byteLength" : 20566,
            "byteOffset" : 31872
        },
        {
            "buffer" : 0,
            "byteLength" : 2700,
            "byteOffset" : 52440
        },
        {
            "buffer" : 0,
            "byteLength" : 2700,
            "byteOffset" : 55140
        },
        {
            "buffer" : 0,
            "byteLength" : 1800,
            "byteOffset" : 57840
        },
        {
            "buffer" : 0,
            "byteLength" : 2352,
            "byteOffset" : 59640
        },
        {
            "buffer" : 0,
            "byteLength" : 340617,
            "byteOffset" : 61992
        },
        {
            "buffer" : 0,
            "byteLength" : 1536,
            "byteOffset" : 402612
        },
        {
            "buffer" : 0,
            "byteLength" : 1536,
            "byteOffset" : 404148
        },
        {
            "buffer" : 0,
            "byteLength" : 1024,
            "byteOffset" : 405684
        },
        {
            "buffer" : 0,
            "byteLength" : 384,
            "byteOffset" : 406708
        }
    ],
    "samplers" : [
        {
            "magFilter" : 9729,
            "minFilter" : 9987
        }
    ],
    "buffers" : [
        {
            "byteLength" : 407092,
            "uri" : "data:application/octet-stream;base64,"
        }
    ]
}
